<?xml version="1.0" standalone="no"?>
<!DOCTYPE svg PUBLIC "-//W3C//DTD SVG 20010904//EN"
 "http://www.w3.org/TR/2001/REC-SVG-20010904/DTD/svg10.dtd">
<svg version="1.0" xmlns="http://www.w3.org/2000/svg"
 width="509.000000pt" height="491.000000pt" viewBox="0 0 509.000000 491.000000"
 preserveAspectRatio="xMidYMid meet">

<g transform="translate(0.000000,491.000000) scale(0.100000,-0.100000)"
fill="#000000" stroke="none">
<path d="M2278 4745 c-278 -30 -542 -113 -808 -252 -534 -279 -933 -756 -1119
-1337 -37 -117 -81 -320 -95 -439 -7 -57 1 -62 75 -50 l53 8 21 130 c38 224
101 419 204 625 104 207 210 357 369 522 181 188 368 326 599 442 322 162 596
226 968 226 296 0 503 -36 765 -134 605 -227 1092 -734 1295 -1351 37 -112 78
-296 91 -406 l6 -56 61 -7 c33 -3 65 -2 69 2 23 23 -58 398 -125 582 -105 289
-278 568 -482 780 -202 210 -370 339 -596 459 -418 221 -875 308 -1351 256z"/>
<path d="M2250 4564 c-282 -36 -630 -166 -858 -318 -467 -312 -771 -735 -910
-1267 -23 -88 -58 -296 -51 -303 8 -9 533 -11 547 -3 6 5 12 18 12 30 0 48 62
263 105 365 113 265 290 487 532 667 108 81 311 184 441 224 510 158 1069 52
1473 -281 106 -87 128 -109 206 -202 171 -203 281 -428 337 -687 13 -59 26
-111 30 -117 3 -6 72 -8 183 -6 98 2 220 4 271 4 110 0 104 -14 67 178 -159
814 -733 1436 -1535 1663 -230 65 -587 88 -850 53z m255 -126 c6 -6 5 -12 -4
-17 -11 -7 -12 -24 -7 -78 7 -66 21 -93 52 -93 29 0 48 152 22 178 -9 9 -6 13
12 20 14 5 32 7 42 4 20 -5 24 -28 7 -34 -6 -2 -15 -37 -19 -79 -9 -91 -24
-119 -65 -119 -59 1 -85 41 -85 132 0 35 -5 69 -11 75 -28 28 26 39 56 11z
m337 -19 c28 -15 32 -48 9 -80 -12 -15 -21 -31 -21 -35 0 -3 14 -27 31 -52 33
-49 27 -65 -20 -53 -19 6 -26 14 -26 32 -1 30 -24 89 -35 89 -19 0 -28 -74
-10 -85 18 -11 10 -25 -14 -25 -51 0 -71 21 -42 44 17 13 38 149 25 154 -5 2
-9 10 -9 18 0 12 9 14 48 8 26 -3 55 -10 64 -15z m-547 -36 c51 -96 73 -127
94 -134 41 -16 18 -39 -40 -39 -25 0 -29 3 -24 23 9 33 -16 61 -47 54 -27 -7
-50 -58 -29 -65 19 -6 12 -29 -11 -36 -57 -15 -74 0 -42 36 9 9 25 56 34 102
17 80 26 106 35 106 3 0 16 -21 30 -47z m-217 -15 c15 -15 16 -58 2 -58 -6 0
-13 7 -16 15 -7 17 -44 21 -44 4 0 -6 8 -40 18 -76 11 -45 23 -68 35 -71 33
-9 12 -36 -36 -44 -29 -6 -46 7 -30 23 11 11 1 87 -16 132 -15 39 -51 38 -51
-2 0 -37 -15 -48 -29 -22 -21 39 -13 57 32 75 23 9 52 16 62 16 11 0 27 5 35
10 19 13 24 12 38 -2z m1036 -10 c3 -13 7 -61 10 -107 4 -63 9 -87 21 -93 8
-5 13 -13 10 -19 -9 -14 -49 -11 -71 5 -15 12 -17 17 -6 27 22 23 14 59 -15
70 -23 9 -30 7 -44 -12 -9 -12 -14 -30 -12 -40 6 -22 -11 -24 -51 -9 -32 12
-33 28 -3 39 21 8 64 57 120 136 22 31 35 32 41 3z m202 -57 c15 -14 21 -33
23 -77 3 -97 10 -106 38 -50 14 28 21 55 18 67 -5 15 -2 19 15 19 30 0 60 -18
60 -35 0 -9 -10 -15 -22 -15 -19 -1 -30 -15 -58 -76 -19 -42 -39 -78 -44 -81
-14 -9 -26 20 -26 68 0 26 -3 61 -6 78 l-7 31 -24 -51 c-13 -29 -21 -60 -18
-70 5 -15 1 -19 -17 -19 -31 0 -63 23 -54 38 4 7 13 12 19 12 19 0 81 130 68
143 -15 15 -14 37 2 37 7 0 22 -8 33 -19z m-1498 -33 c13 -13 17 -48 5 -48 -3
0 -14 7 -24 16 -14 12 -22 13 -38 4 -42 -22 -21 -53 44 -63 39 -6 85 -33 92
-54 2 -6 -8 -25 -23 -42 -20 -25 -33 -31 -49 -27 -16 4 -25 1 -30 -12 -6 -16
-7 -16 -21 2 -16 22 -19 56 -5 56 5 0 22 -5 37 -10 21 -8 31 -8 42 4 23 23 8
42 -45 56 -69 19 -93 37 -93 70 0 30 13 45 45 53 35 8 51 7 63 -5z m-194 -100
c9 -12 16 -31 16 -41 0 -18 -1 -18 -25 -3 -45 29 -100 -5 -72 -44 13 -19 15
-19 28 -4 8 10 13 20 11 23 -2 3 1 7 7 9 5 2 14 -6 20 -17 6 -11 18 -27 27
-36 24 -24 2 -45 -27 -27 -29 18 -33 9 -14 -27 15 -31 16 -31 46 -15 25 13 30
20 25 40 -9 34 27 33 42 -1 18 -38 16 -42 -33 -66 -25 -12 -45 -26 -45 -31 0
-4 -14 -8 -31 -8 -25 0 -29 3 -25 18 8 25 -63 142 -86 142 -35 0 -17 28 45 69
34 22 65 41 69 41 4 0 14 -10 22 -22z m1938 13 c3 -8 73 -56 109 -76 21 -11
24 -27 9 -56 -15 -26 -30 -24 -30 5 0 13 -6 29 -14 35 -10 9 -22 -1 -55 -49
-25 -36 -41 -69 -39 -82 4 -29 -14 -32 -45 -8 -29 23 -38 56 -12 47 15 -6 69
50 95 98 20 38 0 55 -39 32 -39 -23 -48 -6 -20 33 23 31 35 37 41 21z m269
-197 c32 -25 59 -51 59 -58 0 -15 -37 -56 -50 -56 -13 0 -13 16 0 39 13 26
-33 70 -58 55 -22 -14 -22 -40 0 -36 27 4 32 -18 9 -42 -12 -12 -21 -28 -21
-34 0 -17 -27 -15 -33 2 -3 8 -3 25 0 38 6 22 5 22 -25 -6 -25 -23 -29 -32
-20 -43 20 -25 49 -36 61 -24 29 29 38 -10 10 -41 -24 -27 -35 -23 -92 33 -50
49 -61 77 -29 71 8 -1 38 23 67 54 38 41 50 61 46 75 -10 30 12 23 76 -27z
m-2425 -9 c9 -13 13 -33 9 -44 -7 -22 2 -26 78 -37 52 -7 54 -9 30 -36 -16
-18 -53 -25 -53 -10 0 11 -78 37 -86 29 -10 -10 28 -57 47 -57 30 0 31 -17 2
-39 -29 -24 -50 -23 -45 3 2 9 -4 23 -12 32 -8 8 -29 34 -46 58 -23 32 -37 42
-51 39 -32 -9 -21 20 23 55 48 39 82 41 104 7z"/>
<path d="M2777 4393 c-4 -3 -7 -15 -7 -25 0 -23 42 -25 61 -2 10 13 10 17 -2
25 -17 10 -43 12 -52 2z"/>
<path d="M2260 4341 c0 -11 4 -21 9 -21 18 0 21 18 6 30 -13 10 -15 9 -15 -9z"/>
<path d="M3066 4303 c-11 -11 -6 -23 9 -23 8 0 15 4 15 9 0 13 -16 22 -24 14z"/>
<path d="M1338 3956 c-22 -16 -22 -20 -2 -41 20 -20 44 -3 44 31 0 27 -16 30
-42 10z"/>
<path d="M2385 3984 c-268 -41 -433 -97 -635 -217 -300 -178 -542 -483 -659
-832 -38 -114 -69 -251 -59 -261 3 -2 69 -5 146 -5 78 0 144 -4 147 -9 3 -4
-15 -51 -41 -103 l-45 -95 45 -98 c25 -54 43 -102 40 -106 -3 -4 -70 -8 -150
-8 -167 0 -154 13 -125 -125 165 -777 943 -1311 1727 -1185 622 100 1112 549
1260 1155 13 55 24 112 24 128 0 31 13 29 -163 27 -92 -1 -118 2 -123 13 -3 8
11 45 30 83 54 109 54 113 6 214 -23 49 -39 93 -36 99 3 5 65 9 141 9 75 0
139 2 142 6 11 10 -26 180 -58 271 -91 260 -235 476 -438 658 -199 178 -477
315 -739 363 -84 15 -374 27 -437 18z m68 -297 c6 -16 -5 -86 -32 -200 -12
-48 -21 -90 -21 -93 0 -2 18 -1 40 2 42 7 90 -1 90 -15 0 -11 -153 -22 -164
-11 -4 4 3 56 17 117 14 59 29 128 32 153 4 25 9 48 12 53 7 11 20 8 26 -6z
m229 -132 c14 -31 1 -47 -17 -21 -19 25 -43 14 -60 -29 -17 -39 -20 -105 -5
-105 13 0 37 38 45 73 15 58 49 44 36 -14 -13 -55 3 -71 35 -35 27 31 40 30
29 -4 -11 -34 -51 -55 -80 -42 -15 7 -26 8 -30 2 -11 -18 -54 -10 -69 12 -20
28 -20 59 -1 106 33 79 94 108 117 57z m238 -222 c0 -39 -13 -115 -50 -282
-11 -52 -20 -119 -20 -148 0 -49 2 -53 23 -53 28 0 83 54 96 95 5 17 17 67 27
113 14 67 20 82 35 82 24 0 25 -42 4 -120 -8 -30 -15 -79 -15 -107 0 -47 2
-53 21 -53 26 0 79 52 79 79 0 39 43 134 77 172 26 28 43 39 65 39 37 0 81
-42 76 -73 -4 -30 -20 -28 -36 6 -7 15 -21 27 -32 27 -43 0 -100 -114 -100
-200 0 -40 19 -74 35 -62 21 14 52 68 72 122 25 66 49 74 46 15 0 -22 -2 -57
-4 -77 -5 -64 15 -69 64 -15 24 26 47 44 51 40 14 -14 4 -42 -30 -81 -28 -34
-42 -42 -69 -42 -18 0 -38 7 -45 15 -11 13 -15 12 -37 -5 -38 -29 -89 -22
-118 17 -8 11 -17 10 -50 -7 -49 -25 -66 -25 -96 -1 -23 19 -24 19 -52 -5 -39
-33 -89 -32 -116 2 l-20 26 -27 -21 c-33 -26 -68 -27 -92 -3 -18 18 -19 18
-42 0 -27 -22 -79 -24 -106 -4 -16 12 -21 12 -34 0 -9 -7 -34 -20 -56 -28 -39
-13 -42 -13 -72 10 -42 33 -45 62 -24 181 16 84 17 103 6 107 -20 8 -17 24 5
31 13 4 22 22 30 66 11 53 15 60 34 57 23 -3 27 -27 16 -88 -3 -19 1 -25 16
-28 49 -9 39 -41 -12 -42 -17 0 -25 -9 -33 -38 -48 -181 -29 -238 60 -177 35
25 38 31 60 135 23 109 40 144 61 123 8 -8 4 -42 -10 -113 -27 -130 -27 -160
-3 -160 39 0 83 71 102 165 17 89 20 95 41 95 23 0 24 -19 4 -115 -21 -97 -20
-145 3 -145 9 0 30 16 46 36 24 30 32 56 46 143 22 133 58 310 66 322 3 5 12
9 20 9 10 0 14 -12 14 -37z m-1012 -35 c3 -16 -5 -18 -56 -18 -33 0 -73 -3
-89 -6 l-29 -6 -38 -206 c-21 -114 -40 -222 -43 -239 -4 -24 -10 -33 -24 -33
-11 0 -22 6 -25 14 -6 15 34 234 67 371 10 44 19 83 19 87 0 4 -33 8 -72 10
-67 3 -73 5 -76 26 l-3 22 183 -2 c165 -3 183 -5 186 -20z m1185 -25 c10 -17
-13 -53 -33 -53 -14 0 -20 7 -20 23 0 13 3 27 7 30 9 9 41 9 46 0z m-1039
-135 c42 -60 -14 -158 -99 -174 -40 -7 -50 -33 -30 -81 23 -54 56 -56 131 -7
48 31 69 63 78 119 19 116 28 145 43 145 8 0 17 -10 20 -21 5 -18 8 -20 17 -8
20 27 60 49 88 49 34 0 38 -25 6 -36 -73 -23 -124 -105 -141 -227 -11 -73 -14
-82 -35 -85 -12 -2 -24 3 -28 11 -4 12 -11 11 -42 -4 -22 -12 -57 -19 -90 -19
-43 0 -58 5 -77 25 -52 52 -23 223 51 299 42 43 84 48 108 14z m338 -390 c-1
-9 2 -19 7 -23 6 -3 7 -15 3 -28 -11 -29 -8 -129 3 -148 5 -8 9 -23 10 -34 0
-24 30 -30 65 -12 17 8 27 23 30 46 11 77 50 32 50 -58 0 -35 -7 -56 -26 -82
-23 -32 -25 -39 -18 -104 3 -38 10 -80 15 -93 8 -21 11 -22 34 -9 25 13 25 14
26 142 1 72 -2 151 -6 177 l-7 47 41 -4 c24 -2 41 1 41 7 0 7 5 7 14 -1 7 -6
21 -9 30 -5 12 5 16 0 16 -22 0 -16 -7 -40 -15 -54 -45 -77 -56 -114 -66 -221
-7 -69 -17 -118 -25 -127 -12 -11 -14 -10 -14 11 0 32 -8 38 -31 24 -32 -20
-22 -137 12 -137 16 0 19 8 19 41 0 25 4 38 10 34 6 -4 8 -11 5 -16 -4 -5 1
-9 9 -9 8 0 18 9 21 20 7 23 27 28 23 6 -3 -16 -3 -16 47 -16 28 0 37 5 50 30
20 38 20 36 -17 51 l-33 13 43 4 c43 3 56 17 25 25 -12 3 -9 5 8 6 14 0 33 7
43 14 13 10 34 11 74 6 76 -11 102 -37 103 -108 2 -47 -2 -57 -29 -84 -31 -30
-31 -30 -86 -18 -59 13 -76 30 -76 75 0 37 -23 32 -51 -11 -30 -45 -107 -86
-163 -86 -23 0 -43 -2 -46 -6 -3 -3 -33 -20 -67 -36 -57 -27 -78 -45 -54 -45
5 0 33 -20 62 -45 29 -25 56 -45 61 -45 4 0 8 35 8 77 0 69 1 75 14 57 14 -18
15 -18 24 6 l10 25 7 -28 c4 -15 5 -39 2 -54 -3 -18 2 -32 18 -47 21 -19 225
-355 225 -370 0 -25 -29 10 -91 112 -39 64 -87 141 -105 169 -19 29 -34 62
-34 73 0 12 -4 18 -10 15 -13 -8 -12 -82 1 -165 5 -36 12 -83 14 -105 l5 -40
-11 40 c-5 22 -19 72 -31 112 l-21 72 -81 47 c-45 26 -92 57 -106 70 -14 12
-40 31 -58 42 -41 24 -26 38 22 22 31 -10 41 -8 96 20 58 29 61 33 55 58 -4
15 -13 34 -21 43 -8 8 -14 25 -14 37 0 15 -6 22 -20 22 -11 0 -20 4 -20 8 0 5
-11 14 -25 20 -13 6 -35 28 -48 49 -13 21 -54 69 -90 107 -140 145 -189 262
-156 379 5 20 15 37 22 37 12 0 92 -133 134 -222 12 -27 25 -48 28 -48 3 0 3
29 -1 64 -7 72 6 145 37 195 20 34 56 40 51 9z m203 -158 c3 -5 1 -10 -4 -10
-6 0 -11 5 -11 10 0 6 2 10 4 10 3 0 8 -4 11 -10z m230 -157 c3 -15 17 -37 31
-50 13 -12 24 -29 24 -38 0 -8 5 -15 10 -15 6 0 10 9 10 20 0 11 5 20 11 20 7
0 9 -9 5 -22 -3 -13 -6 -29 -6 -35 0 -26 -27 -12 -70 35 -39 44 -55 83 -43
105 9 15 21 6 28 -20z m1 -102 c17 -10 34 -29 37 -41 l6 -22 -21 21 c-26 29
-63 42 -96 35 -26 -5 -26 -5 -8 10 26 21 44 20 82 -3z m-31 -58 c19 -15 18
-15 -14 -9 -20 3 -40 1 -47 -5 -8 -6 -14 -8 -14 -4 0 4 -7 2 -15 -5 -23 -19
-31 -3 -10 20 22 24 72 26 100 3z m269 -102 c-7 -8 -35 9 -29 19 4 6 11 5 20
-3 7 -6 11 -14 9 -16z m-858 -108 c32 -38 31 -69 -3 -86 -33 -15 -77 -15 -96
2 -30 25 13 111 56 111 11 0 30 -12 43 -27z m825 -97 c18 -39 4 -72 -32 -80
-37 -7 -89 17 -89 42 0 57 99 87 121 38z m-721 -65 c16 -25 28 -35 32 -27 4 6
8 -17 8 -51 0 -52 -4 -66 -25 -89 -33 -36 -43 -24 -16 19 20 33 28 77 14 77
-3 0 -15 -7 -25 -17 -17 -15 -18 -15 -18 5 0 11 4 32 9 46 7 17 6 27 -3 35
-18 15 -26 3 -26 -41 0 -56 -24 -44 -31 16 -4 36 -1 49 10 56 29 17 47 10 71
-29z m-110 -21 c-6 -12 -9 -32 -6 -45 3 -13 1 -25 -4 -27 -6 -2 -1 -20 11 -42
20 -39 20 -54 -1 -41 -24 15 -40 71 -30 106 11 40 32 81 37 75 3 -2 -1 -14 -7
-26z m-356 -26 c10 -37 51 -100 105 -157 44 -49 45 -50 13 -31 -63 36 -142
147 -142 199 0 32 15 25 24 -11z m456 -167 c0 -15 -45 -59 -77 -76 -33 -17
-82 -3 -89 26 -7 28 3 44 15 24 5 -8 11 -9 15 -3 3 6 15 8 26 5 16 -4 18 -8 9
-19 -9 -11 -8 -14 2 -14 8 0 25 16 39 35 25 34 60 47 60 22z"/>
<path d="M1960 3073 c-35 -55 -38 -73 -11 -66 27 7 68 53 76 86 6 23 4 27 -14
27 -15 0 -31 -15 -51 -47z"/>
<path d="M2360 2385 c0 -10 30 -65 70 -127 40 -61 52 -57 31 8 -5 16 -12 41
-15 55 -6 28 -86 87 -86 64z"/>
<path d="M2663 2060 c-13 -5 -23 -12 -23 -15 0 -10 27 -5 46 10 21 16 11 18
-23 5z"/>
<path d="M549 2633 l-296 -3 -7 -84 c-4 -46 -4 -125 0 -175 l7 -92 513 2 c283
1 514 5 514 8 0 3 -16 43 -36 88 l-37 82 42 87 c22 47 41 88 41 90 0 2 -100 3
-222 2 -123 -2 -356 -4 -519 -5z m1 -133 c0 -44 4 -60 14 -60 7 0 16 13 19 29
6 30 27 44 52 35 22 -9 18 -39 -7 -52 -18 -8 -19 -11 -6 -11 9 -1 19 3 23 9 4
6 15 6 32 -1 31 -11 39 -7 18 11 -25 20 -19 50 10 50 14 0 25 -4 25 -10 0 -5
-5 -10 -11 -10 -5 0 -7 -4 -4 -10 9 -15 25 -12 25 5 0 8 11 17 24 21 14 3 26
14 28 25 6 41 23 17 26 -36 3 -58 16 -72 26 -30 8 33 39 49 66 35 27 -15 25
-27 -7 -44 -19 -10 -23 -15 -11 -16 9 0 20 5 24 11 4 7 9 8 17 0 7 -7 6 -15
-3 -26 -14 -17 -56 -20 -65 -5 -5 7 -11 8 -19 1 -13 -11 -94 -3 -102 11 -3 5
-11 2 -18 -8 -11 -14 -16 -15 -35 -4 -17 8 -26 9 -34 1 -14 -14 -54 -14 -62
-1 -5 8 -11 8 -19 1 -8 -7 -30 -8 -57 -3 -42 7 -44 9 -47 44 -3 33 0 38 22 44
15 4 26 13 26 23 0 10 3 21 7 24 17 17 23 2 23 -53z"/>
<path d="M495 2469 c-4 -6 -5 -13 -2 -16 7 -7 27 6 27 18 0 12 -17 12 -25 -2z"/>
<path d="M765 2469 c-4 -6 -5 -13 -2 -16 7 -7 27 6 27 18 0 12 -17 12 -25 -2z"/>
<path d="M3810 2632 c0 -6 16 -43 35 -83 19 -41 35 -82 35 -92 0 -10 -16 -52
-35 -94 -19 -42 -35 -77 -35 -79 0 -1 233 -2 518 -1 l517 2 3 173 2 172 -182
0 c-101 0 -335 3 -520 7 -240 4 -338 3 -338 -5z m394 -88 c14 -14 14 -19 -4
-54 l-20 -39 23 -3 c42 -6 26 -33 -22 -36 -64 -5 -70 9 -27 59 24 29 33 46 26
53 -7 7 -14 6 -22 -2 -16 -16 -28 -15 -28 3 0 15 26 34 47 35 6 0 19 -7 27
-16z m212 1 c19 -14 19 -15 -3 -55 -13 -25 -17 -40 -10 -40 7 0 22 -3 35 -6
20 -6 22 -3 22 33 0 21 -5 44 -11 50 -13 13 -4 33 17 33 11 0 14 -14 14 -59 0
-33 5 -63 10 -66 24 -15 -6 -25 -76 -25 -87 0 -95 13 -43 66 21 22 29 38 25
50 -6 16 -8 16 -25 0 -14 -13 -21 -14 -27 -5 -4 7 1 18 11 26 24 17 36 17 61
-2z m-96 -14 c25 -47 -2 -121 -45 -121 -37 0 -63 91 -35 124 18 23 67 20 80
-3z"/>
<path d="M4255 2507 c-8 -29 11 -70 28 -64 7 2 12 21 12 43 0 47 -30 62 -40
21z"/>
<path d="M255 2203 c18 -134 48 -283 80 -394 126 -436 402 -852 755 -1136 140
-112 229 -171 422 -276 83 -46 321 -136 441 -167 196 -52 353 -70 596 -70 231
0 346 12 536 57 486 114 947 408 1264 807 153 193 288 437 369 667 61 173 134
531 113 552 -4 4 -35 7 -67 5 l-59 -3 -13 -95 c-31 -217 -116 -480 -224 -692
-207 -406 -577 -763 -988 -956 -197 -92 -344 -139 -575 -183 -104 -20 -151
-23 -360 -23 -205 0 -258 3 -360 22 -363 66 -665 198 -951 412 -121 91 -319
286 -401 395 -136 181 -247 379 -318 570 -46 123 -99 330 -117 456 l-13 94
-68 3 -68 3 6 -48z"/>
<path d="M430 2226 c0 -63 55 -314 96 -436 148 -447 448 -842 829 -1097 727
-485 1655 -485 2380 0 384 257 680 649 829 1097 41 122 96 373 96 436 l0 24
-275 0 -275 0 -5 -27 c-3 -16 -19 -84 -35 -152 -142 -588 -635 -1052 -1234
-1161 -155 -28 -428 -28 -581 0 -205 39 -423 127 -590 240 -209 141 -407 365
-518 585 -79 156 -111 249 -147 425 l-17 85 -277 3 -276 2 0 -24z m459 -234
c5 -10 13 -41 17 -69 5 -44 3 -54 -15 -72 -23 -23 -46 -27 -56 -11 -4 7 -16 1
-30 -15 -43 -46 -101 -25 -124 44 -19 58 -15 71 18 65 39 -8 148 32 154 57 6
24 23 24 36 1z m3362 -12 c24 -13 25 -30 1 -30 -23 0 -42 -19 -42 -42 0 -25
52 -24 75 2 26 29 90 47 110 30 19 -16 20 -74 0 -94 -8 -8 -15 -22 -15 -30 0
-17 -27 -21 -49 -7 -17 11 -7 41 12 41 22 0 39 27 32 50 -9 27 -22 25 -74 -10
-66 -45 -121 -37 -121 17 0 24 18 63 35 75 13 10 13 10 36 -2z m36 -235 c39
-45 44 -96 14 -134 -16 -21 -30 -26 -83 -29 l-64 -4 -37 41 c-48 54 -49 87 -2
137 33 35 37 36 87 32 45 -5 57 -11 85 -43z m-3297 -29 c0 -6 -31 -42 -70 -81
-38 -38 -70 -78 -70 -87 0 -26 -29 -22 -42 6 -13 29 -4 58 15 50 7 -2 21 4 31
15 14 15 15 24 7 39 -13 24 -60 35 -68 16 -7 -20 -31 -17 -43 5 -23 43 -16 46
115 47 87 1 125 -2 125 -10z m3099 -161 c2 -13 -1 -16 -14 -11 -17 6 -45 -9
-45 -24 0 -15 116 -84 138 -82 27 2 28 -12 1 -49 -23 -33 -39 -37 -39 -11 0
19 -33 54 -88 92 -30 20 -35 21 -49 7 -14 -14 -14 -17 1 -38 31 -45 11 -54
-34 -16 l-27 23 21 27 c12 14 36 46 55 70 28 37 38 44 55 37 12 -4 23 -15 25
-25z m-3006 -17 c44 -69 32 -109 -35 -112 -28 -1 -35 -7 -45 -36 -7 -19 -12
-45 -12 -57 -1 -33 -28 -29 -46 7 -12 23 -12 31 -2 37 30 19 61 93 39 93 -15
0 -52 -32 -52 -45 0 -26 -23 -28 -41 -4 -25 32 -24 49 4 49 12 0 47 16 77 35
30 19 58 35 63 35 5 0 7 6 4 14 -6 14 0 26 12 26 4 0 19 -19 34 -42z m2840
-156 c-2 -14 18 -39 64 -82 82 -74 77 -90 -19 -66 -100 25 -108 22 -58 -21 24
-21 51 -38 59 -38 20 0 16 -35 -7 -52 -22 -18 -32 -16 -32 5 0 10 -25 41 -55
71 -47 44 -58 51 -71 40 -11 -9 -18 -9 -27 0 -8 8 -6 16 10 33 21 20 25 20 98
9 42 -7 79 -11 81 -8 7 7 -65 67 -80 67 -25 0 -27 16 -5 44 24 30 45 29 42 -2z
m-2715 -205 c42 -43 53 -67 30 -67 -16 0 -88 78 -88 96 0 23 14 16 58 -29z
m2562 7 c16 -30 6 -43 -21 -26 -20 13 -31 10 -61 -16 -14 -11 -15 -18 -5 -33
16 -25 37 -24 37 1 0 29 22 25 55 -10 24 -25 27 -33 15 -40 -9 -5 -19 -5 -28
2 -26 22 -31 -7 -6 -37 l24 -30 27 27 c22 23 24 29 14 42 -11 13 -10 17 4 23
12 4 24 -1 37 -16 20 -26 24 -51 7 -51 -6 0 -27 -16 -47 -35 -38 -36 -90 -49
-79 -20 4 8 -10 35 -32 62 -46 59 -67 77 -80 69 -12 -8 -22 7 -13 20 21 29
115 102 126 98 7 -3 19 -16 26 -30z m-2227 -122 c31 -32 33 -44 11 -66 -24
-25 -36 -19 -29 12 7 33 -15 58 -41 48 -14 -5 -15 -14 -9 -49 4 -23 8 -62 9
-87 1 -44 0 -45 -31 -48 -38 -4 -73 13 -73 33 0 8 -9 15 -20 15 -24 0 -25 8
-4 38 22 31 44 28 44 -6 0 -33 16 -52 43 -52 20 0 20 -4 1 108 -12 77 46 109
99 54z m2041 -17 c-3 -14 3 -47 14 -77 23 -62 32 -130 16 -135 -5 -2 -43 20
-83 49 -88 63 -90 65 -116 73 -20 6 -20 7 -1 21 27 19 53 18 58 -4 5 -18 96
-87 104 -79 8 8 -28 123 -41 133 -21 16 -19 21 12 38 34 17 45 12 37 -19z
m-1859 -132 c-18 -95 -23 -168 -13 -181 19 -22 -4 -32 -39 -17 -33 14 -45 45
-18 45 24 0 19 57 -6 70 -29 16 -70 -11 -62 -41 5 -19 3 -20 -18 -14 -53 16
-72 55 -28 55 11 0 52 27 91 60 86 72 103 76 93 23z m1664 1 c6 -14 11 -29 11
-34 0 -18 -29 -11 -40 9 -10 21 -32 19 -63 -4 -15 -11 -16 -17 -7 -34 12 -24
30 -28 30 -7 0 32 21 25 46 -15 21 -33 23 -43 12 -50 -8 -6 -17 -3 -24 6 -10
13 -34 21 -34 11 0 -14 24 -66 31 -66 4 0 20 5 34 12 21 9 25 17 20 35 -9 38
30 30 44 -8 6 -18 11 -33 11 -35 0 -8 -116 -54 -137 -54 -20 0 -23 4 -18 19 8
26 -31 120 -61 148 -13 12 -24 24 -24 27 0 10 134 74 146 69 6 -2 16 -15 23
-29z m-1470 -58 c15 -16 7 -38 -12 -30 -8 3 -25 -22 -45 -66 -18 -38 -32 -72
-32 -73 0 -2 18 -9 41 -16 36 -11 42 -10 54 6 10 13 17 15 25 7 13 -13 -3 -62
-24 -70 -13 -5 -146 49 -146 60 0 2 15 33 32 67 20 39 33 78 33 102 0 38 0 38
30 33 16 -4 36 -13 44 -20z m291 -21 c0 -9 -11 -21 -25 -27 l-25 -11 29 -18
c21 -12 34 -31 41 -59 10 -37 9 -47 -12 -88 -30 -61 -83 -90 -129 -72 -35 15
-69 74 -69 120 0 42 42 106 76 114 16 4 39 18 52 32 28 27 62 32 62 9z m860
-34 c15 -28 12 -61 -4 -61 -8 0 -18 9 -21 21 -6 18 -12 20 -38 15 -41 -8 -49
-18 -39 -46 l9 -23 21 23 21 23 19 -44 c11 -24 18 -47 15 -51 -7 -14 -33 -9
-39 7 -10 25 -24 17 -24 -14 0 -36 11 -44 50 -36 23 5 30 12 30 31 0 13 4 24
8 24 17 0 32 -25 32 -55 0 -30 -2 -31 -65 -43 -94 -18 -91 -19 -91 41 -1 69
-21 137 -40 137 -9 0 -14 7 -12 16 2 11 25 23 68 34 87 23 88 23 100 1z m-682
-123 l39 -82 7 58 c4 39 3 63 -5 72 -14 17 7 27 47 22 33 -4 44 -27 16 -35
-20 -5 -32 -52 -32 -132 0 -20 -5 -43 -10 -51 -9 -13 -13 -11 -30 10 -11 14
-20 30 -20 36 0 6 -11 32 -24 58 l-24 47 -7 -57 c-4 -36 -3 -60 4 -67 16 -16
14 -24 -9 -30 -43 -11 -85 21 -47 36 9 3 16 31 21 78 6 65 4 73 -14 86 -30 21
-24 33 15 33 33 0 35 -3 73 -82z m439 50 c53 -58 59 -124 15 -167 -39 -39
-162 -55 -162 -22 0 5 10 11 21 14 19 5 21 10 15 54 -12 85 -17 103 -31 103
-17 0 -28 17 -20 30 3 6 37 10 74 10 57 0 71 -3 88 -22z"/>
<path d="M831 1931 c-12 -8 -13 -14 -3 -35 20 -45 58 -26 45 23 -6 23 -19 26
-42 12z"/>
<path d="M740 1897 c-14 -6 -27 -12 -29 -14 -10 -7 32 -53 49 -53 21 0 37 38
26 65 -6 17 -12 18 -46 2z"/>
<path d="M4140 1738 c-11 -12 -21 -27 -21 -32 -7 -65 74 -115 138 -84 48 23
40 84 -15 111 -54 28 -80 29 -102 5z"/>
<path d="M890 1680 c0 -5 7 -10 15 -10 8 0 15 5 15 10 0 6 -7 10 -15 10 -8 0
-15 -4 -15 -10z"/>
<path d="M1030 1505 c-18 -21 -5 -45 25 -45 27 0 31 10 15 41 -13 23 -23 24
-40 4z"/>
<path d="M1672 888 c-16 -16 -15 -28 3 -28 8 0 15 9 15 20 0 23 -2 24 -18 8z"/>
<path d="M2086 739 c-28 -33 -32 -62 -15 -106 32 -84 119 -42 119 58 0 44 -3
50 -30 64 -40 21 -44 20 -74 -16z"/>
<path d="M2737 683 c19 -125 16 -118 48 -114 51 5 67 52 38 108 -17 32 -26 38
-56 41 l-36 3 6 -38z"/>
</g>
</svg>
